<?xml version="1.0" encoding="utf-8"?>
<!-- Generator: Adobe Illustrator 24.3.0, SVG Export Plug-In . SVG Version: 6.00 Build 0)  -->
<svg version="1.1" id="形状_2_1_" xmlns="http://www.w3.org/2000/svg" xmlns:xlink="http://www.w3.org/1999/xlink" x="0px"
	 y="0px" viewBox="0 0 460.5 94.1" style="enable-background:new 0 0 460.5 94.1;" xml:space="preserve">
<style type="text/css">
	.st0{fill-rule:evenodd;clip-rule:evenodd;fill:#004A9A;}
</style>
<g id="形状_2">
	<g>
		<path class="st0" d="M68.2,30.5h-18l-1.6,16.1H65c10.1,0,10.8,1.9,10.8,8.5v2.8H62.5c-13.1,0-20.4,4.6-20.4,17.4
			c0,10.9,6.3,18.8,18.1,18.8c4.3,0,10.9-0.7,18.2-4.7l0.7,4.1h16.1V55.2C95.2,37.5,90.3,30.5,68.2,30.5z M75.9,77.8
			c-2.9,1.3-5.2,2.6-9.1,2.6c-3.7,0-5.3-1.8-5.3-5.3c0-3.5,1.8-4.3,5.9-4.3h8.6L75.9,77.8L75.9,77.8z M460.3,30.5h-20.9l-17.7,28
			v-57l-19.3,3.2v88.5h19.3V63.8l17.7,29.5h20.9l-19.3-32.2L460.3,30.5z M306.9,29.7c-22.7,0-28.2,12.7-28.2,25.8v12.7
			c0,13.1,5.5,25.8,28.2,25.8c22.7,0,28.1-12.7,28.1-25.8V55.5C335,42.4,329.6,29.7,306.9,29.7z M315.7,70c0,4.5-2.3,8.1-8.8,8.1
			c-6.6,0-8.8-3.6-8.8-8.1V53.8c0-4.5,2.3-8,8.8-8c6.5,0,8.8,3.6,8.8,8V70z M43.8,30.5H29.2l0-8.1c0-4.2,0.4-6.4,6.4-6.4h8V0H30.8
			C15.4,0,9.9,7.8,9.9,20.9v9.7H0.3v16.1h9.6v46.7h19.3V46.6h12.9L43.8,30.5z M101.6,56.3v11.3c0,15.7,8.2,26.6,29,26.6
			c4.8,0,10.5-0.5,19.3-2.5V76c-10,1.7-12.9,2.1-17.7,2.1c-8.7,0-11.3-1.9-11.3-9.3V55c0-7.3,2.6-9.2,11.3-9.2
			c4.8,0,7.7,0.4,17.7,2.1V32.1c-8.8-2-14.5-2.5-19.3-2.5C109.9,29.6,101.6,40.5,101.6,56.3z M250.6,29.6c-4.9,0-10.3,0.8-14.5,2.3
			V1.6l-19.3,3.2v86.9c10.5,1.6,16.1,2.5,25.6,2.5c26.4,0,30.7-11.1,30.7-26.3V52.2C273.1,38.3,269.9,29.6,250.6,29.6z M253.8,68
			c0,6-1.3,10.4-10.7,10.4c-2.6,0-4.2,0-7-0.3V48.3c2.9-1.3,5.7-2.6,9.7-2.6c6.6,0,8,3.6,8,8L253.8,68L253.8,68z M368.7,29.7
			c-22.7,0-28.2,12.7-28.2,25.8v12.7c0,13.1,5.5,25.8,28.2,25.8c22.7,0,28.1-12.7,28.1-25.8V55.5C396.8,42.4,391.4,29.7,368.7,29.7z
			 M377.5,70c0,4.5-2.3,8.1-8.9,8.1c-6.6,0-8.8-3.6-8.8-8.1V53.8c0-4.5,2.3-8,8.8-8c6.5,0,8.9,3.6,8.9,8V70z M183,29.6
			c-21.2,0-27.4,11.3-27.4,25v12.9c0,15.7,8.2,26.6,29,26.6c9.5,0,14.5-0.5,24.1-2.5V76c-10,1.7-14.7,2.1-22.5,2.1
			c-8.7,0-11.3-1.9-11.3-9.3v-1.3h35.4V54.7C210.3,40.8,204.2,29.6,183,29.6z M191,54.7h-16.1v-2.5c0-4.5,1.5-8,8.1-8
			c6.6,0,8,3.6,8,8V54.7z"/>
	</g>
</g>
</svg>
