<?xml version="1.0" encoding="utf-8"?>
<!-- Generator: Adobe Illustrator 24.3.0, SVG Export Plug-In . SVG Version: 6.00 Build 0)  -->
<svg version="1.1" id="圖層_1" xmlns="http://www.w3.org/2000/svg" xmlns:xlink="http://www.w3.org/1999/xlink" x="0px" y="0px"
	 viewBox="0 0 77 25" style="enable-background:new 0 0 77 25;" xml:space="preserve">
<style type="text/css">
	.st0{fill:#0081FF;}
	.st1{fill:#FF3606;}
	.st2{fill:#FFBE00;}
	.st3{fill:#00B323;}
</style>
<path class="st0" d="M9.9,8.8v2.6h6.4c-0.3,3.7-3.4,5.3-6.4,5.3c-3.8,0-7-2.9-7-7c0-4,3.1-7.1,7-7.1c3,0,4.8,1.9,4.8,1.9l1.9-1.9
	c0,0-2.4-2.6-6.8-2.6C4.3,0,0,4.7,0,9.7c0,4.9,4,9.7,10,9.7c5.2,0,9.1-3.6,9.1-8.8c0-1.1-0.2-1.8-0.2-1.8L9.9,8.8z"/>
<path class="st1" d="M26.3,6.9c-3.7,0-6.3,2.9-6.3,6.2c0,3.4,2.6,6.3,6.4,6.3c3.4,0,6.3-2.6,6.3-6.2C32.6,9,29.3,6.9,26.3,6.9z
	 M26.3,17c-2,0-3.6-1.6-3.6-3.8s1.6-3.8,3.6-3.8c1.8,0,3.5,1.5,3.5,3.8S28.1,17,26.3,17z"/>
<path class="st2" d="M40.1,6.9c-3.7,0-6.3,2.9-6.3,6.2c0,3.4,2.6,6.3,6.4,6.3c3.4,0,6.3-2.6,6.3-6.2C46.4,9,43.1,6.9,40.1,6.9z
	 M40.1,17c-2,0-3.6-1.6-3.6-3.8s1.6-3.8,3.6-3.8c1.8,0,3.5,1.5,3.5,3.8S41.9,17,40.1,17z"/>
<path class="st0" d="M57,7.3v1.1c-0.9-0.9-2-1.5-3.4-1.5c-3.4,0-6,2.9-6,6.2c0,3.8,3.1,6.2,6,6.2c1.8,0,2.7-0.7,3.5-1.5V19
	c0,2.2-1.3,3.4-3.3,3.4c-1.9,0-2.9-1.4-3.2-2.2l-2.4,1c0.9,1.8,2.6,3.7,5.7,3.7c3.4,0,5.9-2.1,5.9-6.5V7.3H57z M53.8,17
	c-1.8,0-3.5-1.5-3.5-3.8c0-2.4,1.7-3.8,3.5-3.8c1.7,0,3.4,1.4,3.4,3.8C57.2,15.6,55.5,17,53.8,17z"/>
<path class="st1" d="M71.6,17c-1.8,0-2.6-1-3.1-1.9l8.4-3.5l-0.4-1c-0.8-2-2.7-3.7-5.2-3.7c-3.2,0-5.9,2.5-5.9,6.2
	c0,3.9,3,6.3,6.2,6.3c2.7,0,4.3-1.4,5.3-2.7l-2.2-1.4C74.1,16.2,73.2,17,71.6,17z M71.4,9.3c1.2,0,2,0.6,2.3,1.3L68.1,13
	C67.9,11.2,69.6,9.3,71.4,9.3z"/>
<rect x="61.4" y="0.6" class="st3" width="2.8" height="18.4"/>
</svg>
