<?xml version="1.0" encoding="utf-8"?>
<!-- Generator: Adobe Illustrator 24.3.0, SVG Export Plug-In . SVG Version: 6.00 Build 0)  -->
<svg version="1.1" id="圖層_1" xmlns="http://www.w3.org/2000/svg" xmlns:xlink="http://www.w3.org/1999/xlink" x="0px" y="0px"
	 viewBox="0 0 363.7 84.4" style="enable-background:new 0 0 363.7 84.4;" xml:space="preserve">
<style type="text/css">
	.st0{display:none;fill:#FDFDFD;}
	.st1{fill:#2F006A;}
	.st2{fill:#2F016A;}
</style>
<g id="Layer_1">
</g>
<g id="Layer_2">
	<g>
		<path class="st0" d="M0.4,0.4c0-170.7,0-341.3,0-512c170.7,0,341.3,0,512,0c0,170.7,0,341.3,0,512C341.8,0.4,171.1,0.4,0.4,0.4z"
			/>
	</g>
</g>
<g>
	<path class="st1" d="M130.3,75.2c-3.5-0.7-7-0.8-10.8,0.1c0.9-22.1,1-44.1,0-66.3c3.8,0.8,7.3,0.8,10.8,0.1c0.4,1,0.2,1.8,0.2,2.6
		c-0.4,8.7-0.7,17.3-0.7,26c0,0.5,0,1,0,1.5s0.3,0.7,0.8,0.8c0.3,0,0.6,0,0.9,0c11.2,0.2,22.5,0.2,33.7,0c1.7,0,1.7,0,1.7-1.8
		c-0.1-8.2-0.3-16.3-0.7-24.5c-0.1-1.5-0.2-3-0.1-4.5c1.6,0.2,3,0.4,4.5,0.5c1.7,0.1,3.4-0.1,5.1-0.4c1.3-0.2,1.3-0.2,1.3,1.1
		c-0.1,4.3-0.3,8.5-0.4,12.8c-0.5,16.6-0.3,33.1,0.4,49.7c0,0.8,0.2,1.5-0.1,2.4c-3.6-0.8-7.1-0.8-10.7,0c-0.3-1.3-0.1-2.6-0.1-3.9
		c0.4-8.3,0.6-16.6,0.7-24.9c0-1.8,0.4-2-1.9-2.1c-11-0.1-22-0.1-33.1,0c-0.4,0-0.9,0-1.3,0c-0.6,0-0.9,0.3-0.9,0.9c0,0.5,0,1,0,1.5
		c0,8.7,0.3,17.5,0.8,26.2C130.5,73.7,130.7,74.4,130.3,75.2z"/>
	<path class="st1" d="M38.7,83.8c-3.1-0.5-6.1-0.7-9.2-0.1c-1.1,0.2-1.1-0.5-1.1-1.2c0.1-5,0.1-10.1,0.2-15.1
		c0.1-5.8,0.2-11.7,0.4-17.5c0-1.1-0.2-2.1-0.8-3C19.4,31.6,10.9,16.2,1.3,1.4C1.1,1.1,0.9,0.8,0.9,0.3C2,0.4,3.1,0.6,4.2,0.7
		c1.9,0.2,3.9,0.1,5.7-0.3c1.2-0.3,1.8,0,2.4,1.1c6.4,11.2,13.2,22.2,19.9,33.3c0.4,0.7,0.8,1.3,1.3,2c0.7-0.5,1-1.2,1.3-1.8
		C41.6,23.8,48.5,12.7,55,1.4c0.3-0.6,0.6-1.3,1.6-1.1c3.2,0.7,6.5,0.6,9.7,0c0.2,0.3,0.2,0.5,0,0.7c-8.9,13.8-16.8,28.2-25.2,42.3
		c-2,3.4-3,6.8-2.8,10.8c0.4,9.2,0.4,18.5,0.6,27.7C38.9,82.3,39.1,83,38.7,83.8z"/>
	<path class="st1" d="M346,65.4c-0.2-1.8,0.3-3.5,0.5-5.2c1.8-14.2,3.2-28.4,4.3-42.6c0.3-3.8,0.6-7.7,0.9-11.5
		c0.3-3.4,2.1-5.2,5.3-5.2c4.1,0,6.4,2.6,5.6,6.6c-0.5,2.6-1.2,5.1-1.8,7.7c-3.6,15-7.1,30-9.9,45.2c-0.3,1.5-0.5,3.1-0.8,4.6
		c-0.1,0.7-0.4,1.1-1.1,0.7C348.1,65.4,347.1,65.5,346,65.4z"/>
	<path class="st2" d="M351.2,78.8c0,3.2-2,5.3-5.1,5.3c-3.6,0-5.9-2.1-5.9-5.2c0-3.3,2.1-5.3,5.3-5.3
		C349,73.6,351.3,75.7,351.2,78.8z"/>
	<path class="st1" d="M338,35.5C336,22.6,329.3,13,317.1,8c-13.3-5.5-26.8-5.5-40.1,0c-10.5,4.3-17.2,12.2-20,23.2
		c-1.7,6.3-1.8,12.8-0.6,19.2c2.7,13.9,10.7,23.2,24.3,27.5c5.3,1.6,10.7,2.3,16.1,2.2c5.7,0.1,11.3-0.6,16.8-2.2
		c11.9-3.8,20-11.4,23.4-23.6C338.7,48.1,339,41.8,338,35.5z M325.2,57.2c-3.8,10.7-11.4,16.6-22.5,18.5c-5,0.8-9.9,0.6-14.8-0.7
		c-8.9-2.4-15.1-7.8-18.3-16.4c-4-10.6-4.1-21.5-0.4-32.2c3.5-10.1,10.9-15.8,21.4-17.7c5-0.9,9.9-0.8,14.8,0.4
		c9.4,2.2,15.8,7.8,19.3,16.7c2,5.3,2.7,10.9,2.7,16.5C327.4,47.4,326.9,52.4,325.2,57.2z"/>
	<path class="st1" d="M251.3,35.6c-2-12.3-8.7-21-20.6-25.2c-9.5-3.3-19.2-3.4-28.7-0.3c-10.7,3.4-17.6,10.8-20.5,21.6
		c-2,7.3-1.9,14.6,0.2,21.9c2.7,9.4,8.7,15.9,17.8,19.6c5.3,2.2,10.8,2.9,16.5,2.9c3.9,0.1,7.7-0.3,11.4-1.3
		c12.3-3,20.2-10.5,23.3-22.9C252.1,46.5,252.2,41.1,251.3,35.6z M238,57.9c-4,9.3-11.1,14-21.2,14.4c-2.4,0.1-4.8-0.1-7.2-0.7
		c-8.4-2-13.7-7.4-16.3-15.3c-3.1-9.4-3.1-18.9,0-28.3c3.4-10.2,11.6-16,22.4-16c10.5,0,18.3,5,22.2,14.2c1,2.4,1.7,5,2.2,7.6
		c0.6,2.8,0.7,5.7,0.7,7.9C240.8,47.7,240.2,52.9,238,57.9z"/>
	<path class="st1" d="M113.3,71.2c-6-12.4-11.3-25.2-16.6-38c-3.1-7.5-6.1-15.1-9.2-22.7c-0.6-1.5-0.6-1.6-2.1-1.2
		c-1.7,0.4-3.3,0.4-5-0.1C79.6,9,79.1,9.1,78.8,10c-0.2,0.9-0.7,1.7-1,2.6c-8.4,20.8-16.7,41.6-26.5,61.8c-0.1,0.1-0.1,0.4-0.1,0.7
		c3-0.5,5.9-0.8,8.9-0.2c1.7,0.4,1.7,0.3,2.3-1.2c2.2-5.4,4.4-10.9,6.5-16.4c0.5-1.1,1-1.5,2.2-1.5c8-0.1,16.1-0.1,24.1,0
		c1.3,0,1.8,0.4,2.2,1.5c1.3,3.5,2.7,7,4.1,10.5c0.9,2.1,1.8,4.3,2.6,6.5c0.2,0.5,0.4,1,1.2,0.8c3.2-0.8,6.4-0.7,10.1,0.1
		C114.6,73.6,114,72.4,113.3,71.2z M71.5,51.2C75.4,41,79.4,31.1,83,21c0.6,0.7,11.2,28,11.7,30.2C87,51.5,79.4,51.5,71.5,51.2z"/>
</g>
</svg>
